<svg width="128" height="128" viewBox="0 0 128 128" fill="none" xmlns="http://www.w3.org/2000/svg">
  <!-- Background circle -->
  <circle cx="64" cy="64" r="60" fill="#1976d2" opacity="0.1"/>
  
  <!-- Google Sheets icon (left) -->
  <g transform="translate(20, 30)">
    <rect x="0" y="0" width="36" height="48" rx="2" fill="#0f9d58" stroke="#0a8043" stroke-width="1.5"/>
    <rect x="4" y="8" width="28" height="3" rx="1" fill="white" opacity="0.9"/>
    <rect x="4" y="14" width="20" height="2" rx="1" fill="white" opacity="0.7"/>
    <rect x="4" y="18" width="24" height="2" rx="1" fill="white" opacity="0.7"/>
    <rect x="4" y="22" width="18" height="2" rx="1" fill="white" opacity="0.7"/>
    <!-- Grid lines -->
    <line x1="4" y1="28" x2="32" y2="28" stroke="white" stroke-width="0.5" opacity="0.3"/>
    <line x1="4" y1="32" x2="32" y2="32" stroke="white" stroke-width="0.5" opacity="0.3"/>
    <line x1="4" y1="36" x2="32" y2="36" stroke="white" stroke-width="0.5" opacity="0.3"/>
    <line x1="12" y1="28" x2="12" y2="40" stroke="white" stroke-width="0.5" opacity="0.3"/>
    <line x1="20" y1="28" x2="20" y2="40" stroke="white" stroke-width="0.5" opacity="0.3"/>
  </g>
  
  <!-- Arrow -->
  <path d="M 58 54 L 70 54 L 70 50 L 78 58 L 70 66 L 70 62 L 58 62 Z" fill="#1976d2" stroke="#1565c0" stroke-width="1"/>
  
  <!-- Excel icon (right) -->
  <g transform="translate(72, 30)">
    <rect x="0" y="0" width="36" height="48" rx="2" fill="#217346" stroke="#1a5d38" stroke-width="1.5"/>
    <!-- Excel "X" logo -->
    <path d="M 18 12 L 22 16 L 26 12 L 28 14 L 24 18 L 28 22 L 26 24 L 22 20 L 18 24 L 16 22 L 20 18 L 16 14 Z" fill="white"/>
    <!-- Grid lines -->
    <line x1="4" y1="28" x2="32" y2="28" stroke="white" stroke-width="0.5" opacity="0.3"/>
    <line x1="4" y1="32" x2="32" y2="32" stroke="white" stroke-width="0.5" opacity="0.3"/>
    <line x1="4" y1="36" x2="32" y2="36" stroke="white" stroke-width="0.5" opacity="0.3"/>
    <line x1="12" y1="28" x2="12" y2="40" stroke="white" stroke-width="0.5" opacity="0.3"/>
    <line x1="20" y1="28" x2="20" y2="40" stroke="white" stroke-width="0.5" opacity="0.3"/>
    <line x1="28" y1="28" x2="28" y2="40" stroke="white" stroke-width="0.5" opacity="0.3"/>
  </g>
</svg>

