<svg width="128" height="128" viewBox="0 0 128 128" fill="none" xmlns="http://www.w3.org/2000/svg">
  <!-- Background -->
  <defs>
    <linearGradient id="grad1" x1="0%" y1="0%" x2="100%" y2="100%">
      <stop offset="0%" style="stop-color:#0f9d58;stop-opacity:1" />
      <stop offset="100%" style="stop-color:#217346;stop-opacity:1" />
    </linearGradient>
  </defs>
  
  <rect width="128" height="128" rx="28" fill="url(#grad1)"/>
  
  <!-- Google Sheets icon (top) -->
  <g transform="translate(32, 16)">
    <rect x="0" y="0" width="64" height="40" rx="3" fill="white" opacity="0.95"/>
    <rect x="4" y="6" width="56" height="4" rx="1" fill="#0f9d58" opacity="0.3"/>
    <line x1="4" y1="14" x2="60" y2="14" stroke="#e0e0e0" stroke-width="1"/>
    <line x1="4" y1="20" x2="60" y2="20" stroke="#e0e0e0" stroke-width="1"/>
    <line x1="4" y1="26" x2="60" y2="26" stroke="#e0e0e0" stroke-width="1"/>
    <line x1="20" y1="14" x2="20" y2="32" stroke="#e0e0e0" stroke-width="1"/>
    <line x1="40" y1="14" x2="40" y2="32" stroke="#e0e0e0" stroke-width="1"/>
  </g>
  
  <!-- Down arrow -->
  <g transform="translate(56, 60)">
    <path d="M 8 0 L 8 20 L 0 20 L 8 28 L 16 20 L 8 20 Z" fill="white" opacity="0.9"/>
  </g>
  
  <!-- Excel icon (bottom) -->
  <g transform="translate(32, 72)">
    <rect x="0" y="0" width="64" height="40" rx="3" fill="white" opacity="0.95"/>
    <!-- Excel X logo -->
    <g transform="translate(24, 8)">
      <rect x="0" y="0" width="16" height="24" rx="2" fill="#217346"/>
      <path d="M 8 4 L 10 6 L 12 4 L 13 5 L 11 7 L 13 9 L 12 10 L 10 8 L 8 10 L 7 9 L 9 7 L 7 5 Z" fill="white"/>
    </g>
    <!-- Grid lines -->
    <line x1="4" y1="28" x2="60" y2="28" stroke="#e0e0e0" stroke-width="1"/>
    <line x1="4" y1="32" x2="60" y2="32" stroke="#e0e0e0" stroke-width="1"/>
    <line x1="20" y1="28" x2="20" y2="36" stroke="#e0e0e0" stroke-width="1"/>
    <line x1="40" y1="28" x2="40" y2="36" stroke="#e0e0e0" stroke-width="1"/>
  </g>
</svg>

