<svg width="128" height="128" viewBox="0 0 128 128" fill="none" xmlns="http://www.w3.org/2000/svg">
  <!-- Abstract geometric design -->
  <defs>
    <linearGradient id="abstractGrad1" x1="0%" y1="0%" x2="100%" y2="100%">
      <stop offset="0%" style="stop-color:#0f9d58;stop-opacity:1" />
      <stop offset="100%" style="stop-color:#217346;stop-opacity:1" />
    </linearGradient>
    <linearGradient id="abstractGrad2" x1="0%" y1="0%" x2="100%" y2="100%">
      <stop offset="0%" style="stop-color:#1976d2;stop-opacity:1" />
      <stop offset="100%" style="stop-color:#1565c0;stop-opacity:1" />
    </linearGradient>
  </defs>
  
  <!-- Background -->
  <rect width="128" height="128" rx="32" fill="#f8f9fa"/>
  
  <!-- Abstract shapes representing transformation -->
  <!-- Source (green) -->
  <g transform="translate(16, 24)">
    <rect x="0" y="0" width="32" height="40" rx="4" fill="url(#abstractGrad1)" opacity="0.9"/>
    <rect x="4" y="8" width="24" height="3" rx="1" fill="white" opacity="0.8"/>
    <rect x="4" y="14" width="20" height="2" rx="1" fill="white" opacity="0.6"/>
    <rect x="4" y="18" width="18" height="2" rx="1" fill="white" opacity="0.6"/>
  </g>
  
  <!-- Arrow/transformation -->
  <g transform="translate(52, 40)">
    <path d="M 0 12 L 12 12 L 12 6 L 20 12 L 12 18 L 12 12 Z" fill="#1976d2" opacity="0.8"/>
    <circle cx="6" cy="12" r="2" fill="#1976d2"/>
    <circle cx="18" cy="12" r="2" fill="#1976d2"/>
  </g>
  
  <!-- Target (blue with X) -->
  <g transform="translate(80, 24)">
    <rect x="0" y="0" width="32" height="40" rx="4" fill="url(#abstractGrad2)" opacity="0.9"/>
    <!-- Excel X -->
    <g transform="translate(8, 12)">
      <path d="M 8 4 L 10 6 L 12 4 L 13 5 L 11 7 L 13 9 L 12 10 L 10 8 L 8 10 L 7 9 L 9 7 L 7 5 Z" fill="white" opacity="0.9"/>
    </g>
  </g>
  
  <!-- Decorative dots -->
  <circle cx="32" cy="80" r="3" fill="#0f9d58" opacity="0.4"/>
  <circle cx="96" cy="80" r="3" fill="#1976d2" opacity="0.4"/>
  <circle cx="64" cy="100" r="2" fill="#757575" opacity="0.3"/>
</svg>

