<svg width="128" height="128" viewBox="0 0 128 128" fill="none" xmlns="http://www.w3.org/2000/svg">
  <!-- Background circle with gradient -->
  <defs>
    <linearGradient id="bgGradient" x1="0%" y1="0%" x2="100%" y2="100%">
      <stop offset="0%" style="stop-color:#1976d2;stop-opacity:1" />
      <stop offset="100%" style="stop-color:#1565c0;stop-opacity:1" />
    </linearGradient>
  </defs>
  
  <circle cx="64" cy="64" r="56" fill="url(#bgGradient)"/>
  
  <!-- Spreadsheet icon -->
  <g transform="translate(28, 32)">
    <rect x="0" y="0" width="72" height="64" rx="3" fill="white"/>
    
    <!-- Header row -->
    <rect x="0" y="0" width="72" height="12" fill="#f5f5f5"/>
    <line x1="18" y1="0" x2="18" y2="12" stroke="#e0e0e0" stroke-width="1"/>
    <line x1="36" y1="0" x2="36" y2="12" stroke="#e0e0e0" stroke-width="1"/>
    <line x1="54" y1="0" x2="54" y2="12" stroke="#e0e0e0" stroke-width="1"/>
    
    <!-- Data rows -->
    <line x1="0" y1="20" x2="72" y2="20" stroke="#e0e0e0" stroke-width="1"/>
    <line x1="0" y1="32" x2="72" y2="32" stroke="#e0e0e0" stroke-width="1"/>
    <line x1="0" y1="44" x2="72" y2="44" stroke="#e0e0e0" stroke-width="1"/>
    <line x1="18" y1="12" x2="18" y2="64" stroke="#e0e0e0" stroke-width="1"/>
    <line x1="36" y1="12" x2="36" y2="64" stroke="#e0e0e0" stroke-width="1"/>
    <line x1="54" y1="12" x2="54" y2="64" stroke="#e0e0e0" stroke-width="1"/>
    
    <!-- Excel badge (bottom right) -->
    <g transform="translate(50, 48)">
      <rect x="0" y="0" width="18" height="12" rx="2" fill="#217346"/>
      <path d="M 9 3 L 11 5 L 13 3 L 14 4 L 12 6 L 14 8 L 13 9 L 11 7 L 9 9 L 8 8 L 10 6 L 8 4 Z" fill="white"/>
    </g>
  </g>
  
  <!-- Export arrow -->
  <g transform="translate(100, 50)">
    <path d="M 0 8 L 8 8 L 8 4 L 14 10 L 8 16 L 8 12 L 0 12 Z" fill="white" opacity="0.9"/>
  </g>
</svg>

