<svg width="128" height="128" viewBox="0 0 128 128" fill="none" xmlns="http://www.w3.org/2000/svg">
  <!-- Classic office document style -->
  <defs>
    <linearGradient id="classicGrad" x1="0%" y1="0%" x2="100%" y2="100%">
      <stop offset="0%" style="stop-color:#ffffff;stop-opacity:1" />
      <stop offset="100%" style="stop-color:#f5f5f5;stop-opacity:1" />
    </linearGradient>
  </defs>
  
  <!-- Background -->
  <rect width="128" height="128" rx="28" fill="#e8eaf6"/>
  
  <!-- Document with folded corner -->
  <g transform="translate(24, 20)">
    <!-- Main document -->
    <rect x="0" y="0" width="80" height="88" rx="2" fill="url(#classicGrad)"/>
    
    <!-- Folded corner effect -->
    <path d="M 70 0 L 80 0 L 80 10 L 70 0 Z" fill="#e0e0e0"/>
    <path d="M 70 0 L 80 10 L 70 10 Z" fill="#bdbdbd"/>
    
    <!-- Header with Excel color -->
    <rect x="0" y="0" width="70" height="16" fill="#217346"/>
    
    <!-- Excel X in header -->
    <g transform="translate(27, 4)">
      <path d="M 8 4 L 10 6 L 12 4 L 13 5 L 11 7 L 13 9 L 12 10 L 10 8 L 8 10 L 7 9 L 9 7 L 7 5 Z" fill="white"/>
    </g>
    
    <!-- Content lines -->
    <g transform="translate(8, 24)">
      <rect x="0" y="0" width="54" height="2" rx="1" fill="#e0e0e0"/>
      <rect x="0" y="6" width="48" height="2" rx="1" fill="#e0e0e0"/>
      <rect x="0" y="12" width="52" height="2" rx="1" fill="#e0e0e0"/>
      
      <!-- Grid pattern -->
      <g transform="translate(0, 22)" opacity="0.3">
        <rect x="0" y="0" width="54" height="40" fill="none" stroke="#1976d2" stroke-width="0.5"/>
        <line x1="18" y1="0" x2="18" y2="40" stroke="#1976d2" stroke-width="0.5"/>
        <line x1="36" y1="0" x2="36" y2="40" stroke="#1976d2" stroke-width="0.5"/>
        <line x1="0" y1="13" x2="54" y2="13" stroke="#1976d2" stroke-width="0.5"/>
        <line x1="0" y1="26" x2="54" y2="26" stroke="#1976d2" stroke-width="0.5"/>
      </g>
    </g>
    
    <!-- Export stamp/badge -->
    <g transform="translate(50, 68)">
      <circle cx="10" cy="10" r="8" fill="#1976d2" opacity="0.9"/>
      <path d="M 6 10 L 10 6 L 10 8 L 13 8 L 13 12 L 10 12 L 10 14 Z" fill="white"/>
    </g>
  </g>
</svg>

